<svg height="512pt" viewBox="0 -26 512 512" width="512pt" xmlns="http://www.w3.org/2000/svg"><path d="m407 460h-302c-8.285156 0-15-6.714844-15-15v-234h-75c-8.285156 0-15-6.714844-15-15v-31c0-90.980469 74.019531-165 165-165h182c90.980469 0 165 74.019531 165 165v31c0 8.285156-6.714844 15-15 15h-75v234c0 8.285156-6.714844 15-15 15zm0 0" fill="#e1ebf0"/><path d="m347 0h-91v460h151c8.285156 0 15-6.714844 15-15v-234h75c8.285156 0 15-6.714844 15-15v-31c0-90.980469-74.019531-165-165-165zm0 0" fill="#cde1e6"/><path d="m256 110c-52.382812 0-95-42.617188-95-95 0-8.285156 6.714844-15 15-15h160c8.285156 0 15 6.714844 15 15 0 52.382812-42.617188 95-95 95zm0 0" fill="#3f4a4a"/><path d="m336 0h-80v110c52.382812 0 95-42.617188 95-95 0-8.285156-6.714844-15-15-15zm0 0" fill="#323c3c"/><path d="m90 144c0-8.285156-6.714844-15-15-15s-15 6.714844-15 15v67h30zm0 0" fill="#cde1e6"/><path d="m437 129c-8.285156 0-15 6.714844-15 15v67h30v-67c0-8.285156-6.714844-15-15-15zm0 0" fill="#bfd2d9"/><path d="m256 341c-3.804688 0-7.605469-1.4375-10.523438-4.3125l-72.554687-71.449219c-.027344-.023437-.054687-.054687-.082031-.082031-10.859375-10.855469-16.839844-25.296875-16.839844-40.65625s5.980469-29.800781 16.84375-40.65625c10.859375-10.863281 25.296875-16.84375 40.65625-16.84375s29.796875 5.980469 40.660156 16.84375l1.839844 1.839844 1.84375-1.839844c10.855469-10.863281 25.296875-16.84375 40.65625-16.84375s29.800781 5.980469 40.65625 16.84375c10.863281 10.855469 16.84375 25.296875 16.84375 40.65625s-5.980469 29.800781-16.84375 40.65625c-.023438.027344-.054688.058594-.078125.082031l-72.554687 71.449219c-2.917969 2.875-6.71875 4.3125-10.523438 4.3125zm0 0" fill="#ff6379"/><path d="m266.523438 336.6875 72.554687-71.449219c.023437-.023437.054687-.050781.078125-.078125 10.863281-10.859375 16.84375-25.300781 16.84375-40.660156s-5.980469-29.800781-16.84375-40.65625c-10.855469-10.863281-25.296875-16.84375-40.65625-16.84375s-29.800781 5.980469-40.65625 16.84375l-1.84375 1.839844v155.316406c3.804688 0 7.605469-1.4375 10.523438-4.3125zm0 0" fill="#ff415b"/><path d="m256 80c-30.679688 0-56.464844-21.363281-63.253906-50h126.507812c-6.789062 28.636719-32.574218 50-63.253906 50zm0 0" fill="#cde1e6"/><path d="m319.253906 30h-63.253906v50c30.679688 0 56.464844-21.363281 63.253906-50zm0 0" fill="#bfd2d9"/></svg>